<svg version="1.1" id="Layer_1" xmlns="http://www.w3.org/2000/svg" xmlns:xlink="http://www.w3.org/1999/xlink" x="0px" y="0px"
	 width="100%" viewBox="0 0 3840 2558" enable-background="new 0 0 3840 2558" xml:space="preserve">
<path fill="#222220" opacity="1.000000" stroke="none" 
	d="
M2704.000000,2560.000000 
	C1803.424194,2560.000000 902.848328,2560.000000 2.136250,2560.000000 
	C2.136250,1707.510132 2.136250,855.020325 2.136250,2.000000 
	C904.732056,2.000000 1807.464111,2.000000 2711.487793,2.600335 
	C2715.237793,4.194041 2717.670166,5.258851 2720.159424,6.169084 
	C2735.788330,11.884514 2751.702393,16.920942 2767.011475,23.390394 
	C2800.116455,37.380035 2829.712158,56.975643 2856.304932,81.199036 
	C2887.486328,109.602142 2910.899170,142.937439 2922.779785,183.805038 
	C2923.772705,187.220657 2925.055908,190.551880 2926.079590,193.555466 
	C2936.928467,194.986481 2946.833496,196.067627 2956.656250,197.658005 
	C2964.905762,198.993683 2966.219727,200.925095 2964.374756,209.036118 
	C2959.355713,231.101349 2954.373535,253.182770 2948.787109,275.107452 
	C2946.338379,284.718719 2942.613770,294.023071 2939.170166,303.356598 
	C2936.712646,310.016266 2931.702637,314.726929 2924.979004,316.443237 
	C2917.336670,318.394165 2909.410645,319.373047 2901.551025,320.286346 
	C2896.118896,320.917603 2890.590820,320.721191 2884.472412,320.914642 
	C2885.592285,328.661804 2886.521484,335.089447 2887.413086,341.258545 
	C2901.167480,343.396393 3562.552734,342.707367 3569.094727,340.808228 
	C3573.166992,326.523590 3582.747070,316.366882 3593.121582,307.073212 
	C3598.512939,302.243500 3605.293457,305.354340 3606.109863,312.653625 
	C3606.772949,318.583069 3606.266602,324.637238 3606.398193,330.633484 
	C3606.615723,340.546997 3606.929443,350.458374 3607.208252,360.579224 
	C3610.263916,361.025635 3612.175049,361.518463 3614.094238,361.552002 
	C3632.083984,361.866638 3650.075195,362.111267 3668.065918,362.357025 
	C3675.396240,362.457153 3682.838379,361.728424 3690.033203,362.754181 
	C3703.382568,364.657379 3716.561279,363.850037 3729.852051,362.640228 
	C3735.439697,362.131622 3741.149170,362.677948 3746.782959,363.052795 
	C3751.491211,363.366119 3753.790527,365.979645 3753.753174,370.933990 
	C3753.655273,383.919342 3753.873291,396.907043 3753.785645,409.892578 
	C3753.768555,412.432434 3752.941650,414.966888 3752.422119,417.875031 
	C3727.872314,418.327728 3703.935791,418.988403 3679.995850,419.149139 
	C3655.843506,419.311310 3631.687012,416.998108 3607.061523,417.863037 
	C3605.245605,436.550354 3607.651123,454.137543 3605.521973,472.347626 
	C3473.062988,470.804657 3341.602051,471.587555 3209.940186,474.061432 
	C3209.166992,477.023682 3208.519043,479.218536 3208.023438,481.447235 
	C3201.868652,509.119232 3195.352295,536.703247 3181.264648,561.679993 
	C3178.452393,566.665649 3177.277588,571.404663 3178.393066,576.838440 
	C3180.866699,588.890625 3183.343262,600.942444 3185.884277,612.980652 
	C3192.345703,643.595093 3198.856934,674.198975 3205.316895,704.813660 
	C3207.015137,712.862183 3208.599854,720.934570 3210.373047,729.667297 
	C3163.838867,744.242920 3118.065186,757.618286 3071.699219,771.026489 
	C3063.019043,741.346191 3056.428711,712.408325 3047.403809,682.810303 
	C3045.842285,685.173523 3045.099609,685.913574 3044.802246,686.802612 
	C3033.931152,719.303345 3023.193359,751.848938 3012.218994,784.314636 
	C3008.119629,796.441223 3001.229736,807.157532 2993.196777,816.973511 
	C2986.602783,825.031616 2978.674805,831.355408 2967.820068,833.529907 
	C2954.126465,836.273071 2940.428711,839.272827 2927.052734,843.240845 
	C2914.873535,846.854065 2903.312744,846.776489 2892.216064,840.761902 
	C2876.426758,832.203979 2860.729736,823.447998 2845.310791,814.244324 
	C2833.073242,806.939758 2821.312500,798.836182 2809.120361,790.945007 
	C2795.661621,806.620239 2782.528564,821.916321 2769.566650,837.013123 
	C2776.943848,846.397400 2783.449219,855.168457 2790.480225,863.495728 
	C2800.070557,874.854370 2799.906250,887.194092 2794.866211,900.087830 
	C2791.107910,909.701782 2787.234375,919.294006 2782.873535,928.644653 
	C2770.063965,956.111145 2757.430420,983.674377 2743.900146,1010.786499 
	C2726.953125,1044.744385 2709.020264,1078.208984 2691.875977,1112.070068 
	C2687.165527,1121.372925 2680.309326,1125.067383 2670.211914,1124.455811 
	C2665.040771,1124.142456 2659.809326,1124.823853 2654.550049,1125.058228 
	C2654.142578,1127.857910 2653.736816,1129.473877 2653.696289,1131.098877 
	C2653.038818,1157.401123 2652.620605,1183.710938 2651.729248,1210.004883 
	C2651.255127,1223.984497 2654.161133,1236.478516 2661.018066,1249.071533 
	C2684.265381,1291.767212 2706.253662,1335.146606 2728.976074,1378.131104 
	C2746.094971,1410.515015 2763.725830,1442.628052 2780.905518,1474.980347 
	C2805.428467,1521.161621 2829.607422,1567.526001 2854.209473,1613.664917 
	C2867.687744,1638.942627 2876.455566,1665.274170 2878.823730,1694.152344 
	C2881.382080,1725.350952 2877.350586,1755.318115 2866.800293,1784.421753 
	C2855.344238,1816.023560 2843.175293,1847.374023 2830.895020,1878.668457 
	C2805.473145,1943.453735 2779.872070,2008.168945 2754.152832,2072.836914 
	C2734.707275,2121.730957 2714.959473,2170.505127 2695.356201,2219.336426 
	C2674.108154,2272.265137 2642.958740,2317.944336 2597.505371,2353.184570 
	C2596.010498,2354.343506 2594.922119,2356.027100 2593.751953,2357.344971 
	C2594.133789,2358.769531 2594.183350,2359.843506 2594.672852,2360.650146 
	C2605.386475,2378.302490 2615.858154,2396.111816 2627.004639,2413.488037 
	C2634.381836,2424.988037 2644.778320,2433.151611 2657.995605,2437.479736 
	C2667.484619,2440.587402 2676.845459,2444.083984 2686.319092,2447.240967 
	C2702.421387,2452.605957 2718.684082,2457.514893 2734.648682,2463.256836 
	C2743.683350,2466.506348 2752.406738,2470.739502 2760.996338,2475.072510 
	C2768.804688,2479.011230 2771.204346,2486.044189 2770.115967,2494.437988 
	C2768.853027,2504.175781 2765.695801,2513.152588 2759.887695,2521.201660 
	C2753.543213,2529.993652 2745.749268,2537.238281 2736.442139,2542.610840 
	C2725.821289,2548.741699 2714.830078,2554.231689 2704.000000,2560.000000 
M1390.185547,954.846680 
	C1429.988037,1021.827820 1453.652222,1094.373535 1465.543335,1172.310547 
	C1461.102539,1172.742920 1457.281860,1173.464600 1453.467773,1173.430786 
	C1424.161133,1173.171631 1394.856201,1172.495361 1365.549927,1172.455444 
	C1273.238525,1172.329834 1180.926636,1172.403809 1088.615112,1172.508301 
	C1084.463989,1172.512939 1080.314331,1173.571411 1075.635864,1174.211304 
	C1075.635864,1178.467773 1075.636108,1181.768677 1075.635742,1185.069702 
	C1075.633179,1211.732056 1075.773560,1238.395508 1075.590454,1265.056641 
	C1075.375854,1296.321045 1085.428467,1323.242065 1108.893188,1344.433472 
	C1123.131104,1357.291870 1139.373169,1365.575073 1159.255127,1365.221313 
	C1181.556152,1364.824585 1203.864136,1364.829468 1226.169067,1364.646729 
	C1234.180054,1364.581055 1235.234985,1365.596313 1235.613159,1373.763916 
	C1236.274902,1388.053711 1236.821167,1402.350342 1237.653687,1416.630371 
	C1240.090088,1458.418091 1248.954956,1499.046143 1261.114380,1538.919556 
	C1277.341919,1592.132690 1300.952271,1641.938965 1332.256958,1688.045898 
	C1351.220825,1715.976685 1372.478760,1742.041748 1397.003296,1765.169067 
	C1431.777588,1797.961914 1470.070068,1826.011841 1512.316650,1848.729980 
	C1559.531494,1874.119751 1609.037231,1893.149048 1661.181763,1905.405029 
	C1706.058350,1915.952393 1751.520630,1921.880615 1797.653931,1921.529907 
	C1829.494263,1921.287964 1853.591553,1906.659180 1870.575684,1880.002686 
	C1881.002075,1863.638672 1886.966431,1845.533813 1887.424438,1826.323242 
	C1888.210327,1793.361572 1887.679443,1760.368408 1887.642822,1727.388428 
	C1887.641846,1726.489868 1886.971436,1725.592041 1886.191284,1723.635864 
	C1883.229614,1723.635864 1879.974609,1723.636353 1876.719604,1723.635864 
	C1848.057495,1723.631714 1819.388306,1724.012451 1790.736084,1723.478760 
	C1773.465698,1723.157227 1756.087036,1722.418701 1738.990234,1720.127686 
	C1676.574341,1711.764160 1619.059570,1690.360962 1567.413696,1653.822144 
	C1524.963867,1623.789551 1492.233643,1585.443970 1468.432495,1539.342285 
	C1451.771973,1507.071167 1441.560059,1472.660767 1435.894409,1436.967285 
	C1432.562134,1415.973633 1430.800171,1394.728149 1428.493408,1373.578247 
	C1428.224976,1371.117065 1428.989502,1368.543213 1429.302979,1365.776123 
	C1506.533813,1364.726685 1583.001221,1367.110962 1659.889404,1365.718994 
	C1660.092651,1361.400269 1660.351074,1358.449097 1660.352661,1355.497559 
	C1660.379028,1304.519653 1660.844849,1253.535278 1660.159912,1202.566650 
	C1659.856445,1179.984863 1658.700562,1157.208740 1655.320923,1134.916748 
	C1648.179565,1087.815552 1637.141113,1041.531128 1622.061523,996.229797 
	C1608.886963,956.651001 1593.208374,918.178284 1574.505615,880.893982 
	C1560.895264,853.761475 1545.671509,827.619812 1528.645996,802.490784 
	C1508.804199,773.205139 1486.878052,745.596863 1462.437744,720.041626 
	C1436.612915,693.038879 1408.752563,668.385498 1378.313354,646.560608 
	C1342.943848,621.200684 1305.071533,600.340881 1265.291626,583.098450 
	C1211.592651,559.822937 1155.469482,544.439453 1097.721191,535.032104 
	C1064.878052,529.681824 1031.944946,524.253113 998.640625,523.838867 
	C941.342224,523.126221 884.028748,523.620361 826.721558,523.665588 
	C823.883911,523.667847 821.046570,524.218140 818.239990,524.510010 
	C818.239990,703.762878 818.239990,881.946594 818.239990,1060.705811 
	C821.344604,1061.042114 823.915222,1061.587769 826.478882,1061.557129 
	C855.442810,1061.210205 884.430420,1061.389282 913.362854,1060.218994 
	C956.515381,1058.473511 990.726257,1028.551514 998.271362,986.366211 
	C1000.547485,973.640015 1002.139893,960.598328 1002.173218,947.696350 
	C1002.355652,877.046631 1001.948486,806.395447 1001.778931,735.744690 
	C1001.771362,732.580505 1002.103333,729.415527 1002.340271,725.102600 
	C1015.805725,726.010864 1028.092407,726.391357 1040.270264,727.749512 
	C1070.409668,731.110840 1100.130737,736.661255 1129.259766,745.342529 
	C1156.479126,753.454712 1182.552612,764.223450 1207.870361,777.041382 
	C1248.393921,797.557922 1284.215576,824.594360 1315.950073,856.755005 
	C1344.564331,885.753540 1368.900024,918.314331 1390.185547,954.846680 
M817.632141,1682.999878 
	C817.632141,1701.998047 817.632263,1720.996338 817.632263,1739.994507 
	C817.632324,1758.659302 817.481934,1777.325684 817.674194,1795.988403 
	C817.868286,1814.830688 816.824646,1833.718994 818.478455,1853.485840 
	C824.308289,1853.485840 829.236633,1853.618774 834.155151,1853.455688 
	C842.135376,1853.191162 850.106934,1852.473999 858.085999,1852.407349 
	C877.416077,1852.245972 896.751160,1852.557129 916.079224,1852.301758 
	C953.088989,1851.812988 986.400513,1826.607910 998.174500,1791.461914 
	C1003.260254,1776.280762 1004.165222,1760.862305 1004.136536,1745.177979 
	C1003.968750,1653.533569 1003.805969,1561.889160 1003.606628,1470.244751 
	C1003.600342,1467.339478 1003.216309,1464.434814 1002.924500,1460.359131 
	C998.809692,1460.359131 995.243896,1460.359131 991.678101,1460.359131 
	C963.680847,1460.358765 935.682983,1460.237915 907.686646,1460.397461 
	C886.499817,1460.518188 867.785278,1468.029053 851.973572,1481.747925 
	C830.137024,1500.693848 819.470032,1525.737549 818.627319,1554.054199 
	C817.368896,1596.341797 817.876099,1638.682007 817.632141,1682.999878 
M698.777283,1173.851929 
	C692.814697,1173.352783 686.852661,1172.426514 680.889465,1172.419067 
	C602.580566,1172.320557 524.271545,1172.332886 445.962585,1172.411255 
	C442.440704,1172.414795 438.919739,1173.310303 434.373352,1173.929932 
	C434.373352,1178.679565 434.325592,1182.616089 434.380981,1186.551147 
	C434.783813,1215.178711 434.901001,1243.814331 435.704010,1272.430908 
	C436.653534,1306.265869 451.027374,1333.249512 478.760498,1352.841187 
	C487.017365,1358.674194 496.171722,1362.779175 506.319397,1363.879395 
	C514.575195,1364.774536 522.891724,1365.431030 531.190369,1365.547241 
	C553.844482,1365.864136 576.503174,1365.877686 599.160278,1365.942261 
	C655.136475,1366.101685 711.112732,1366.234863 767.089050,1366.328857 
	C770.596924,1366.334717 774.105469,1365.910889 777.795044,1365.675415 
	C778.086731,1362.240601 778.448608,1359.955688 778.449219,1357.670898 
	C778.456421,1329.016968 778.061523,1300.357788 778.490479,1271.710815 
	C778.833008,1248.836792 772.271912,1228.327393 759.212769,1209.880859 
	C744.865967,1189.615356 725.537292,1177.112915 698.777283,1173.851929 
z"/>
<path fill="#FF7701" opacity="1.000000" stroke="none" 
	d="
M2704.937256,2560.000000 
	C2714.830078,2554.231689 2725.821289,2548.741699 2736.442139,2542.610840 
	C2745.749268,2537.238281 2753.543213,2529.993652 2759.887695,2521.201660 
	C2765.695801,2513.152588 2768.853027,2504.175781 2770.115967,2494.437988 
	C2771.204346,2486.044189 2768.804688,2479.011230 2760.996338,2475.072510 
	C2752.406738,2470.739502 2743.683350,2466.506348 2734.648682,2463.256836 
	C2718.684082,2457.514893 2702.421387,2452.605957 2686.319092,2447.240967 
	C2676.845459,2444.083984 2667.484619,2440.587402 2657.995605,2437.479736 
	C2644.778320,2433.151611 2634.381836,2424.988037 2627.004639,2413.488037 
	C2615.858154,2396.111816 2605.386475,2378.302490 2594.672852,2360.650146 
	C2594.183350,2359.843506 2594.133789,2358.769531 2593.751953,2357.344971 
	C2594.922119,2356.027100 2596.010498,2354.343506 2597.505371,2353.184570 
	C2642.958740,2317.944336 2674.108154,2272.265137 2695.356201,2219.336426 
	C2714.959473,2170.505127 2734.707275,2121.730957 2754.152832,2072.836914 
	C2779.872070,2008.168945 2805.473145,1943.453735 2830.895020,1878.668457 
	C2843.175293,1847.374023 2855.344238,1816.023560 2866.800293,1784.421753 
	C2877.350586,1755.318115 2881.382080,1725.350952 2878.823730,1694.152344 
	C2876.455566,1665.274170 2867.687744,1638.942627 2854.209473,1613.664917 
	C2829.607422,1567.526001 2805.428467,1521.161621 2780.905518,1474.980347 
	C2763.725830,1442.628052 2746.094971,1410.515015 2728.976074,1378.131104 
	C2706.253662,1335.146606 2684.265381,1291.767212 2661.018066,1249.071533 
	C2654.161133,1236.478516 2651.255127,1223.984497 2651.729248,1210.004883 
	C2652.620605,1183.710938 2653.038818,1157.401123 2653.696289,1131.098877 
	C2653.736816,1129.473877 2654.142578,1127.857910 2654.550049,1125.058228 
	C2659.809326,1124.823853 2665.040771,1124.142456 2670.211914,1124.455811 
	C2680.309326,1125.067383 2687.165527,1121.372925 2691.875977,1112.070068 
	C2709.020264,1078.208984 2726.953125,1044.744385 2743.900146,1010.786499 
	C2757.430420,983.674377 2770.063965,956.111145 2782.873535,928.644653 
	C2787.234375,919.294006 2791.107910,909.701782 2794.866211,900.087830 
	C2799.906250,887.194092 2800.070557,874.854370 2790.480225,863.495728 
	C2783.449219,855.168457 2776.943848,846.397400 2769.566650,837.013123 
	C2782.528564,821.916321 2795.661621,806.620239 2809.120361,790.945007 
	C2821.312500,798.836182 2833.073242,806.939758 2845.310791,814.244324 
	C2860.729736,823.447998 2876.426758,832.203979 2892.216064,840.761902 
	C2903.312744,846.776489 2914.873535,846.854065 2927.052734,843.240845 
	C2940.428711,839.272827 2954.126465,836.273071 2967.820068,833.529907 
	C2978.674805,831.355408 2986.602783,825.031616 2993.196777,816.973511 
	C3001.229736,807.157532 3008.119629,796.441223 3012.218994,784.314636 
	C3023.193359,751.848938 3033.931152,719.303345 3044.802246,686.802612 
	C3045.099609,685.913574 3045.842285,685.173523 3047.403809,682.810303 
	C3056.428711,712.408325 3063.019043,741.346191 3071.699219,771.026489 
	C3118.065186,757.618286 3163.838867,744.242920 3210.373047,729.667297 
	C3208.599854,720.934570 3207.015137,712.862183 3205.316895,704.813660 
	C3198.856934,674.198975 3192.345703,643.595093 3185.884277,612.980652 
	C3183.343262,600.942444 3180.866699,588.890625 3178.393066,576.838440 
	C3177.277588,571.404663 3178.452393,566.665649 3181.264648,561.679993 
	C3195.352295,536.703247 3201.868652,509.119232 3208.023438,481.447235 
	C3208.519043,479.218536 3209.166992,477.023682 3209.940186,474.061432 
	C3341.602051,471.587555 3473.062988,470.804657 3605.521973,472.347626 
	C3607.651123,454.137543 3605.245605,436.550354 3607.061523,417.863037 
	C3631.687012,416.998108 3655.843506,419.311310 3679.995850,419.149139 
	C3703.935791,418.988403 3727.872314,418.327728 3752.422119,417.875031 
	C3752.941650,414.966888 3753.768555,412.432434 3753.785645,409.892578 
	C3753.873291,396.907043 3753.655273,383.919342 3753.753174,370.933990 
	C3753.790527,365.979645 3751.491211,363.366119 3746.782959,363.052795 
	C3741.149170,362.677948 3735.439697,362.131622 3729.852051,362.640228 
	C3716.561279,363.850037 3703.382568,364.657379 3690.033203,362.754181 
	C3682.838379,361.728424 3675.396240,362.457153 3668.065918,362.357025 
	C3650.075195,362.111267 3632.083984,361.866638 3614.094238,361.552002 
	C3612.175049,361.518463 3610.263916,361.025635 3607.208252,360.579224 
	C3606.929443,350.458374 3606.615723,340.546997 3606.398193,330.633484 
	C3606.266602,324.637238 3606.772949,318.583069 3606.109863,312.653625 
	C3605.293457,305.354340 3598.512939,302.243500 3593.121582,307.073212 
	C3582.747070,316.366882 3573.166992,326.523590 3569.094727,340.808228 
	C3562.552734,342.707367 2901.167480,343.396393 2887.413086,341.258545 
	C2886.521484,335.089447 2885.592285,328.661804 2884.472412,320.914642 
	C2890.590820,320.721191 2896.118896,320.917603 2901.551025,320.286346 
	C2909.410645,319.373047 2917.336670,318.394165 2924.979004,316.443237 
	C2931.702637,314.726929 2936.712646,310.016266 2939.170166,303.356598 
	C2942.613770,294.023071 2946.338379,284.718719 2948.787109,275.107452 
	C2954.373535,253.182770 2959.355713,231.101349 2964.374756,209.036118 
	C2966.219727,200.925095 2964.905762,198.993683 2956.656250,197.658005 
	C2946.833496,196.067627 2936.928467,194.986481 2926.079590,193.555466 
	C2925.055908,190.551880 2923.772705,187.220657 2922.779785,183.805038 
	C2910.899170,142.937439 2887.486328,109.602142 2856.304932,81.199036 
	C2829.712158,56.975643 2800.116455,37.380035 2767.011475,23.390394 
	C2751.702393,16.920942 2735.788330,11.884514 2720.159424,6.169084 
	C2717.670166,5.258851 2715.237793,4.194041 2712.389648,2.600335 
	C3088.598389,2.000000 3465.197021,2.000000 3841.897705,2.000000 
	C3841.897705,854.444153 3841.897705,1706.888306 3841.897705,2560.000000 
	C3463.291748,2560.000000 3084.583252,2560.000000 2704.937256,2560.000000 
z"/>
<path fill="#FE7701" opacity="1.000000" stroke="none" 
	d="
M1389.861206,954.190613 
	C1368.900024,918.314331 1344.564331,885.753540 1315.950073,856.755005 
	C1284.215576,824.594360 1248.393921,797.557922 1207.870361,777.041382 
	C1182.552612,764.223450 1156.479126,753.454712 1129.259766,745.342529 
	C1100.130737,736.661255 1070.409668,731.110840 1040.270264,727.749512 
	C1028.092407,726.391357 1015.805725,726.010864 1002.340271,725.102600 
	C1002.103333,729.415527 1001.771362,732.580505 1001.778931,735.744690 
	C1001.948486,806.395447 1002.355652,877.046631 1002.173218,947.696350 
	C1002.139893,960.598328 1000.547485,973.640015 998.271362,986.366211 
	C990.726257,1028.551514 956.515381,1058.473511 913.362854,1060.218994 
	C884.430420,1061.389282 855.442810,1061.210205 826.478882,1061.557129 
	C823.915222,1061.587769 821.344604,1061.042114 818.239990,1060.705811 
	C818.239990,881.946594 818.239990,703.762878 818.239990,524.510010 
	C821.046570,524.218140 823.883911,523.667847 826.721558,523.665588 
	C884.028748,523.620361 941.342224,523.126221 998.640625,523.838867 
	C1031.944946,524.253113 1064.878052,529.681824 1097.721191,535.032104 
	C1155.469482,544.439453 1211.592651,559.822937 1265.291626,583.098450 
	C1305.071533,600.340881 1342.943848,621.200684 1378.313354,646.560608 
	C1408.752563,668.385498 1436.612915,693.038879 1462.437744,720.041626 
	C1486.878052,745.596863 1508.804199,773.205139 1528.645996,802.490784 
	C1545.671509,827.619812 1560.895264,853.761475 1574.505615,880.893982 
	C1593.208374,918.178284 1608.886963,956.651001 1622.061523,996.229797 
	C1637.141113,1041.531128 1648.179565,1087.815552 1655.320923,1134.916748 
	C1658.700562,1157.208740 1659.856445,1179.984863 1660.159912,1202.566650 
	C1660.844849,1253.535278 1660.379028,1304.519653 1660.352661,1355.497559 
	C1660.351074,1358.449097 1660.092651,1361.400269 1659.889404,1365.718994 
	C1583.001221,1367.110962 1506.533813,1364.726685 1429.302979,1365.776123 
	C1428.989502,1368.543213 1428.224976,1371.117065 1428.493408,1373.578247 
	C1430.800171,1394.728149 1432.562134,1415.973633 1435.894409,1436.967285 
	C1441.560059,1472.660767 1451.771973,1507.071167 1468.432495,1539.342285 
	C1492.233643,1585.443970 1524.963867,1623.789551 1567.413696,1653.822144 
	C1619.059570,1690.360962 1676.574341,1711.764160 1738.990234,1720.127686 
	C1756.087036,1722.418701 1773.465698,1723.157227 1790.736084,1723.478760 
	C1819.388306,1724.012451 1848.057495,1723.631714 1876.719604,1723.635864 
	C1879.974609,1723.636353 1883.229614,1723.635864 1886.191284,1723.635864 
	C1886.971436,1725.592041 1887.641846,1726.489868 1887.642822,1727.388428 
	C1887.679443,1760.368408 1888.210327,1793.361572 1887.424438,1826.323242 
	C1886.966431,1845.533813 1881.002075,1863.638672 1870.575684,1880.002686 
	C1853.591553,1906.659180 1829.494263,1921.287964 1797.653931,1921.529907 
	C1751.520630,1921.880615 1706.058350,1915.952393 1661.181763,1905.405029 
	C1609.037231,1893.149048 1559.531494,1874.119751 1512.316650,1848.729980 
	C1470.070068,1826.011841 1431.777588,1797.961914 1397.003296,1765.169067 
	C1372.478760,1742.041748 1351.220825,1715.976685 1332.256958,1688.045898 
	C1300.952271,1641.938965 1277.341919,1592.132690 1261.114380,1538.919556 
	C1248.954956,1499.046143 1240.090088,1458.418091 1237.653687,1416.630371 
	C1236.821167,1402.350342 1236.274902,1388.053711 1235.613159,1373.763916 
	C1235.234985,1365.596313 1234.180054,1364.581055 1226.169067,1364.646729 
	C1203.864136,1364.829468 1181.556152,1364.824585 1159.255127,1365.221313 
	C1139.373169,1365.575073 1123.131104,1357.291870 1108.893188,1344.433472 
	C1085.428467,1323.242065 1075.375854,1296.321045 1075.590454,1265.056641 
	C1075.773560,1238.395508 1075.633179,1211.732056 1075.635742,1185.069702 
	C1075.636108,1181.768677 1075.635864,1178.467773 1075.635864,1174.211304 
	C1080.314331,1173.571411 1084.463989,1172.512939 1088.615112,1172.508301 
	C1180.926636,1172.403809 1273.238525,1172.329834 1365.549927,1172.455444 
	C1394.856201,1172.495361 1424.161133,1173.171631 1453.467773,1173.430786 
	C1457.281860,1173.464600 1461.102539,1172.742920 1465.543335,1172.310547 
	C1453.652222,1094.373535 1429.988037,1021.827820 1389.861206,954.190613 
z"/>
<path fill="#FE7702" opacity="1.000000" stroke="none" 
	d="
M817.632080,1681.999756 
	C817.876099,1638.682007 817.368896,1596.341797 818.627319,1554.054199 
	C819.470032,1525.737549 830.137024,1500.693848 851.973572,1481.747925 
	C867.785278,1468.029053 886.499817,1460.518188 907.686646,1460.397461 
	C935.682983,1460.237915 963.680847,1460.358765 991.678101,1460.359131 
	C995.243896,1460.359131 998.809692,1460.359131 1002.924500,1460.359131 
	C1003.216309,1464.434814 1003.600342,1467.339478 1003.606628,1470.244751 
	C1003.805969,1561.889160 1003.968750,1653.533569 1004.136536,1745.177979 
	C1004.165222,1760.862305 1003.260254,1776.280762 998.174500,1791.461914 
	C986.400513,1826.607910 953.088989,1851.812988 916.079224,1852.301758 
	C896.751160,1852.557129 877.416077,1852.245972 858.085999,1852.407349 
	C850.106934,1852.473999 842.135376,1853.191162 834.155151,1853.455688 
	C829.236633,1853.618774 824.308289,1853.485840 818.478455,1853.485840 
	C816.824646,1833.718994 817.868286,1814.830688 817.674194,1795.988403 
	C817.481934,1777.325684 817.632324,1758.659302 817.632263,1739.994507 
	C817.632263,1720.996338 817.632141,1701.998047 817.632080,1681.999756 
z"/>
<path fill="#FD7702" opacity="1.000000" stroke="none" 
	d="
M699.659058,1173.982910 
	C725.537292,1177.112915 744.865967,1189.615356 759.212769,1209.880859 
	C772.271912,1228.327393 778.833008,1248.836792 778.490479,1271.710815 
	C778.061523,1300.357788 778.456421,1329.016968 778.449219,1357.670898 
	C778.448608,1359.955688 778.086731,1362.240601 777.795044,1365.675415 
	C774.105469,1365.910889 770.596924,1366.334717 767.089050,1366.328857 
	C711.112732,1366.234863 655.136475,1366.101685 599.160278,1365.942261 
	C576.503174,1365.877686 553.844482,1365.864136 531.190369,1365.547241 
	C522.891724,1365.431030 514.575195,1364.774536 506.319397,1363.879395 
	C496.171722,1362.779175 487.017365,1358.674194 478.760498,1352.841187 
	C451.027374,1333.249512 436.653534,1306.265869 435.704010,1272.430908 
	C434.901001,1243.814331 434.783813,1215.178711 434.380981,1186.551147 
	C434.325592,1182.616089 434.373352,1178.679565 434.373352,1173.929932 
	C438.919739,1173.310303 442.440704,1172.414795 445.962585,1172.411255 
	C524.271545,1172.332886 602.580566,1172.320557 680.889465,1172.419067 
	C686.852661,1172.426514 692.814697,1173.352783 699.659058,1173.982910 
z"/>
</svg>